<?xml version="1.0" standalone="no"?>
<!DOCTYPE svg PUBLIC "-//W3C//DTD SVG 20010904//EN"
 "http://www.w3.org/TR/2001/REC-SVG-20010904/DTD/svg10.dtd">
<svg version="1.0" xmlns="http://www.w3.org/2000/svg"
 width="920.000000pt" height="920.000000pt" viewBox="0 0 920.000000 920.000000"
 preserveAspectRatio="xMidYMid meet">

<g transform="translate(0.000000,920.000000) scale(0.100000,-0.100000)"
fill="#000000" stroke="none">
<path d="M4543 8220 c-89 -18 -157 -72 -205 -163 -22 -41 -23 -52 -26 -355 -3
-261 -1 -321 12 -367 24 -82 69 -132 179 -200 l97 -60 0 -127 0 -128 -30 0
c-45 0 -80 -14 -760 -310 -608 -264 -892 -387 -917 -397 -10 -4 -13 37 -13
183 0 165 -3 194 -20 231 -45 101 -183 113 -248 22 -15 -21 -18 -62 -22 -298
l-5 -273 -125 -54 c-68 -30 -133 -57 -142 -60 -17 -5 -18 32 -18 748 0 716 -1
755 -19 788 -24 46 -72 73 -128 73 -47 0 -82 -19 -117 -67 -21 -27 -21 -37
-24 -852 l-2 -825 -43 -19 c-116 -50 -593 -256 -837 -362 -151 -66 -372 -161
-490 -211 -189 -81 -220 -98 -265 -142 -85 -83 -87 -93 -83 -497 3 -389 2
-383 90 -464 97 -90 212 -97 376 -25 51 23 95 41 98 41 2 0 4 -718 4 -1595 l0
-1595 -237 0 c-216 0 -241 -2 -267 -19 -43 -29 -66 -70 -66 -121 0 -60 29
-106 83 -130 41 -19 120 -20 4073 -20 2217 0 4046 3 4064 7 45 8 105 71 114
117 9 50 -22 119 -66 146 -31 18 -50 20 -270 20 l-238 0 0 2060 0 2060 68 -42
c106 -65 148 -80 219 -80 121 0 227 74 272 190 20 50 28 561 11 662 -14 81
-52 147 -108 187 -21 15 -199 125 -395 243 l-356 215 -1 703 0 702 88 0 c72 0
94 4 126 23 98 56 100 188 4 247 -32 19 -52 20 -786 20 -838 0 -800 3 -843
-67 -28 -45 -29 -115 -2 -151 42 -56 68 -67 169 -70 l94 -4 0 -349 c0 -192 -2
-349 -4 -349 -2 0 -75 43 -162 96 -88 54 -294 179 -459 279 -165 100 -428 260
-585 355 -670 407 -689 418 -741 429 -56 12 -57 12 -116 1z m782 -722 c204
-124 573 -348 820 -498 248 -150 565 -343 705 -428 140 -85 392 -238 560 -340
168 -102 395 -240 505 -307 110 -67 251 -152 313 -190 l112 -68 0 -259 c0
-142 -3 -258 -6 -258 -7 0 -50 25 -304 180 -96 59 -501 305 -900 547 -773 469
-767 466 -1832 1113 l-698 423 0 263 0 263 178 -108 c97 -60 344 -210 547
-333z m2148 -348 c-2 -335 -6 -610 -10 -609 -5 0 -62 34 -128 74 -66 40 -190
116 -275 168 l-155 94 -3 441 -2 442 287 0 288 0 -2 -610z m-1818 -715 c165
-100 647 -393 1070 -650 424 -257 830 -504 903 -548 l132 -80 0 -853 0 -854
-593 0 c-500 0 -601 -2 -644 -15 -68 -20 -143 -88 -174 -157 -24 -53 -24 -53
-27 -502 -2 -305 0 -471 8 -517 14 -81 52 -146 111 -189 83 -60 85 -60 731
-60 l588 0 0 -575 0 -575 -860 0 -860 0 -2 1188 -3 1187 -23 46 c-29 60 -86
116 -142 143 -44 21 -54 21 -695 21 -641 0 -651 0 -695 -21 -56 -27 -113 -83
-142 -143 l-23 -46 -3 -1187 -2 -1188 -1580 0 -1580 0 2 1661 3 1661 415 179
c228 99 543 236 700 304 621 268 907 392 1420 615 294 128 652 282 794 344
284 122 332 153 377 243 l24 48 3 492 3 492 232 -141 c128 -78 367 -223 532
-323z m-1057 -176 l-3 -272 -75 -32 c-73 -32 -1625 -705 -2600 -1127 -267
-116 -672 -291 -900 -390 -228 -99 -421 -182 -427 -185 -10 -4 -13 54 -13 268
l0 274 403 174 c221 96 591 256 822 357 231 100 573 248 760 329 187 81 423
183 525 227 538 234 660 287 940 408 168 72 359 156 425 185 66 29 126 54 133
54 10 1 12 -56 10 -270z m1152 -4249 l0 -1150 -575 0 -575 0 0 1150 0 1150
575 0 575 0 0 -1150z m2010 720 l0 -430 -575 0 -575 0 0 430 0 430 575 0 575
0 0 -430z"/>
<path d="M5033 5301 c-433 -118 -578 -646 -263 -961 227 -227 583 -227 811 0
256 256 214 678 -87 880 -94 62 -182 91 -299 96 -68 3 -108 -1 -162 -15z m263
-299 c67 -34 105 -72 135 -137 66 -138 16 -293 -119 -373 -42 -24 -57 -27
-137 -27 -80 0 -95 3 -137 27 -135 80 -185 235 -119 373 36 77 95 128 181 156
43 14 152 4 196 -19z"/>
<path d="M1637 3436 c-54 -20 -111 -60 -141 -99 -56 -73 -56 -78 -56 -612 l0
-492 31 -61 c32 -64 79 -110 146 -140 35 -16 116 -17 1092 -20 1160 -3 1112
-5 1200 58 59 43 97 108 111 189 8 46 10 212 8 517 -3 449 -3 449 -27 502 -31
69 -106 137 -174 157 -44 13 -193 15 -1101 15 -858 -1 -1058 -3 -1089 -14z
m2103 -706 l0 -430 -1005 0 -1005 0 0 430 0 430 1005 0 1005 0 0 -430z"/>
<path d="M1523 1711 c-78 -36 -84 -56 -81 -283 3 -194 3 -197 28 -223 72 -77
180 -71 232 14 22 34 23 46 23 223 0 173 -2 189 -21 214 -49 67 -113 86 -181
55z"/>
<path d="M2257 1715 c-90 -31 -97 -52 -97 -280 0 -211 6 -232 72 -266 48 -25
91 -24 138 2 66 37 70 53 70 266 0 169 -2 191 -20 220 -33 55 -102 80 -163 58z"/>
<path d="M2972 1717 c-47 -15 -89 -67 -97 -120 -4 -25 -5 -111 -3 -193 3 -170
14 -201 80 -235 65 -33 125 -21 178 36 25 26 25 29 28 223 3 227 -3 247 -81
282 -47 22 -58 23 -105 7z"/>
<path d="M3696 1720 c-16 -5 -40 -19 -54 -32 -45 -42 -52 -75 -52 -251 0 -149
2 -166 23 -207 52 -102 187 -106 247 -8 18 30 20 51 20 218 0 166 -2 188 -20
217 -31 51 -106 80 -164 63z"/>
<path d="M6567 1716 c-90 -33 -97 -54 -97 -278 0 -165 2 -186 20 -216 44 -72
139 -92 208 -43 54 38 64 85 60 279 -3 154 -5 173 -24 198 -45 62 -104 82
-167 60z"/>
<path d="M7273 1710 c-78 -35 -84 -55 -81 -282 3 -194 3 -197 28 -223 53 -57
113 -69 178 -36 66 34 77 65 80 235 2 82 1 168 -3 193 -8 55 -51 106 -103 121
-50 15 -49 15 -99 -8z"/>
<path d="M5253 2284 c-18 -9 -43 -33 -55 -53 -20 -32 -23 -52 -26 -175 -5
-187 2 -239 39 -280 65 -74 190 -61 234 25 14 25 16 63 13 224 -3 191 -3 194
-28 220 -52 56 -115 69 -177 39z"/>
</g>
</svg>
