<?xml version="1.0" standalone="no"?>
<!DOCTYPE svg PUBLIC "-//W3C//DTD SVG 20010904//EN"
 "http://www.w3.org/TR/2001/REC-SVG-20010904/DTD/svg10.dtd">
<svg version="1.0" xmlns="http://www.w3.org/2000/svg"
 width="920.000000pt" height="646.000000pt" viewBox="0 0 920.000000 646.000000"
 preserveAspectRatio="xMidYMid meet">

<g transform="translate(0.000000,646.000000) scale(0.100000,-0.100000)"
fill="#000000" stroke="none">
<path d="M3328 5537 c-2331 -3506 -3256 -4916 -3301 -5031 -15 -37 -20 -76
-21 -141 -1 -77 3 -98 25 -145 40 -86 73 -117 180 -171 l99 -49 4290 0 4290 0
90 45 c113 57 151 90 184 164 47 106 44 232 -8 346 -27 60 -214 350 -785 1215
-620 941 -1446 2180 -1671 2508 l-92 134 -37 -51 c-20 -28 -316 -475 -658
-994 -769 -1166 -951 -1435 -984 -1459 -61 -46 -151 -27 -196 41 -33 49 -29
77 27 175 81 141 514 810 897 1388 l111 167 -161 245 c-162 245 -287 435 -923
1406 -185 283 -425 650 -533 814 -108 165 -201 301 -206 303 -6 1 -283 -408
-617 -910z m778 -50 c617 -931 1024 -1568 1024 -1604 0 -13 -48 -20 -338 -43
-351 -28 -373 -31 -392 -50 -23 -23 -32 -75 -105 -650 -35 -272 -64 -497 -64
-499 -4 -23 -417 453 -728 839 -55 69 -123 149 -151 179 l-50 54 -84 -59 c-46
-32 -225 -160 -398 -284 -614 -442 -783 -561 -787 -556 -7 6 60 110 804 1244
131 199 326 496 433 660 346 530 618 938 645 971 15 17 31 29 35 26 5 -3 75
-105 156 -228z m2791 -2207 c308 -463 528 -796 786 -1190 251 -382 269 -411
263 -417 -3 -3 -241 115 -530 261 -289 146 -530 266 -535 266 -8 0 -74 -80
-308 -375 -61 -77 -129 -157 -151 -179 -35 -33 -41 -36 -46 -20 -3 11 -17 105
-31 209 -57 424 -86 599 -99 612 -3 3 -88 -24 -188 -61 -359 -132 -398 -146
-398 -136 0 11 88 154 215 350 48 74 97 151 110 170 118 183 525 792 570 853
32 43 61 75 65 70 5 -4 129 -190 277 -413z"/>
</g>
</svg>
