<?xml version="1.0" standalone="no"?>
<!DOCTYPE svg PUBLIC "-//W3C//DTD SVG 20010904//EN"
 "http://www.w3.org/TR/2001/REC-SVG-20010904/DTD/svg10.dtd">
<svg version="1.0" xmlns="http://www.w3.org/2000/svg"
 width="820.000000pt" height="794.000000pt" viewBox="0 0 820.000000 794.000000"
 preserveAspectRatio="xMidYMid meet">

<g transform="translate(0.000000,794.000000) scale(0.100000,-0.100000)"
fill="#000000" stroke="none">
<path d="M180 7507 c-19 -12 -43 -38 -54 -57 l-21 -35 0 -3081 0 -3080 26 -40
c25 -38 83 -68 1024 -537 663 -331 1007 -497 1028 -497 23 -1 310 138 978 471
l947 473 1013 -470 c861 -398 1021 -469 1059 -469 41 0 134 48 944 490 494
270 911 503 927 518 16 15 33 45 39 66 7 26 9 1021 8 3097 -3 2882 -4 3061
-20 3091 -26 47 -73 76 -132 80 -51 4 -55 2 -906 -461 -470 -256 -860 -466
-867 -466 -11 0 -287 126 -1521 694 -396 182 -522 236 -552 236 -33 0 -212
-86 -970 -465 -511 -256 -937 -465 -945 -465 -8 0 -434 209 -945 465 -843 422
-934 465 -978 465 -34 0 -59 -7 -82 -23z m4990 -801 c960 -445 965 -447 1020
-443 50 4 123 41 818 421 420 229 766 416 768 416 2 0 4 -1282 4 -2849 0
-2267 -3 -2851 -12 -2859 -7 -5 -369 -204 -804 -441 l-791 -430 -1020 469
c-747 344 -1030 470 -1057 470 -27 0 -258 -111 -976 -470 l-940 -470 -873 436
c-479 240 -875 441 -879 448 -9 13 -11 5690 -2 5699 3 3 389 -186 858 -420
733 -367 857 -426 896 -427 40 0 151 53 985 471 l940 471 50 -23 c27 -12 484
-224 1015 -469z"/>
<path d="M4655 6056 c-96 -31 -106 -37 -153 -99 l-42 -53 20 -69 c11 -37 21
-69 22 -70 11 -9 122 -45 138 -45 48 0 175 53 222 92 l48 41 0 73 0 73 -59 41
c-70 47 -95 49 -196 16z"/>
<path d="M5343 6047 c-51 -21 -54 -24 -69 -77 -8 -30 -17 -62 -20 -71 -2 -8
15 -40 38 -71 48 -62 72 -73 188 -82 50 -4 81 0 133 17 l67 21 20 64 c11 35
20 68 20 73 0 6 -18 34 -41 64 -48 63 -71 73 -199 80 -72 4 -93 1 -137 -18z"/>
<path d="M6166 5890 c-69 -12 -70 -13 -105 -75 l-32 -56 28 -69 c30 -73 30
-73 147 -124 44 -20 75 -26 125 -26 36 0 71 4 77 8 6 4 27 31 46 60 l36 53
-20 67 c-11 36 -28 73 -37 80 -26 21 -158 82 -188 86 -16 3 -50 1 -77 -4z"/>
<path d="M1199 5750 l-56 -29 -12 -69 c-14 -81 -9 -96 64 -190 30 -38 63 -65
107 -89 l63 -33 65 32 65 33 12 68 c14 80 10 93 -64 190 -32 42 -61 66 -103
87 -33 17 -65 30 -72 30 -7 -1 -38 -14 -69 -30z"/>
<path d="M4004 5662 c-17 -9 -57 -36 -90 -59 -51 -36 -64 -53 -88 -109 l-29
-66 31 -64 c18 -35 35 -64 39 -64 5 0 36 -5 71 -10 72 -12 81 -9 180 65 53 39
69 57 93 110 l29 65 -32 64 c-34 70 -25 65 -143 82 -17 2 -43 -3 -61 -14z"/>
<path d="M6765 5435 l-50 -35 -7 -73 c-8 -81 -6 -86 71 -175 26 -30 72 -68
108 -88 l62 -34 64 31 65 32 12 73 c12 69 12 74 -11 112 -55 92 -102 140 -159
162 -87 34 -99 34 -155 -5z"/>
<path d="M3302 5161 c-72 -41 -89 -57 -122 -109 l-39 -61 25 -68 25 -69 64
-18 c77 -22 100 -18 190 37 50 31 81 59 108 98 42 60 43 81 9 160 -19 43 -24
47 -79 62 -33 10 -68 17 -79 17 -10 0 -57 -22 -102 -49z"/>
<path d="M1707 5142 l-49 -50 11 -73 c7 -40 16 -78 22 -85 5 -7 43 -35 83 -63
61 -42 85 -52 145 -62 l72 -12 50 49 50 49 -7 65 c-3 36 -12 75 -20 86 -14 24
-134 111 -170 124 -12 5 -48 12 -81 15 l-58 7 -48 -50z"/>
<path d="M2487 4888 c-72 -34 -77 -42 -92 -143 -5 -38 -3 -43 44 -92 l51 -53
112 0 112 0 62 41 62 40 7 70 c4 39 6 72 4 73 -2 2 -28 24 -58 50 l-55 46 -90
0 c-81 0 -98 -4 -159 -32z"/>
<path d="M7153 4753 c-25 -5 -93 -108 -93 -142 0 -11 5 -42 12 -68 6 -27 15
-65 20 -85 5 -20 26 -60 48 -87 l40 -51 73 0 73 0 42 57 c48 66 51 87 24 201
-13 58 -26 84 -62 127 -45 55 -45 55 -100 54 -30 -1 -65 -4 -77 -6z"/>
<path d="M7199 3933 c-30 -25 -57 -55 -61 -67 -3 -11 -6 -60 -7 -107 -1 -68 4
-100 23 -149 23 -63 23 -63 82 -81 32 -10 64 -19 70 -19 24 0 120 82 131 113
6 18 12 69 12 115 1 71 -3 92 -28 147 -17 36 -36 65 -43 65 -7 1 -38 7 -69 14
l-56 13 -54 -44z"/>
<path d="M7099 3164 c-47 -23 -69 -41 -77 -61 -54 -137 -60 -160 -55 -227 l6
-67 59 -41 60 -40 61 22 c78 28 80 30 110 94 48 101 56 144 42 219 -7 38 -14
70 -16 71 -2 2 -31 17 -64 34 l-60 30 -66 -34z"/>
<path d="M1459 2717 c-69 -47 -100 -137 -68 -200 6 -12 99 -111 207 -219 l196
-198 -201 -202 c-170 -171 -202 -209 -208 -241 -14 -76 20 -148 86 -182 33
-18 96 -19 136 -4 15 6 116 98 223 205 l195 194 190 -191 c105 -105 202 -197
217 -205 64 -34 161 -8 204 55 29 44 34 132 8 171 -9 14 -100 109 -203 212
l-186 188 197 197 c161 163 198 206 209 241 29 100 -49 202 -156 202 -20 0
-51 -7 -69 -15 -17 -8 -117 -100 -221 -205 l-190 -190 -195 194 c-107 107
-208 199 -223 205 -48 18 -111 13 -148 -12z"/>
<path d="M3670 2547 c-54 -22 -55 -24 -78 -90 l-22 -68 42 -60 c46 -64 56 -69
174 -86 54 -8 106 -4 172 12 15 4 32 26 55 71 l32 65 -35 67 c-33 62 -38 67
-88 84 -87 30 -187 32 -252 5z"/>
<path d="M6719 2483 c-43 -7 -152 -128 -177 -196 -12 -33 -22 -65 -22 -73 0
-8 16 -38 36 -68 29 -45 41 -55 72 -60 97 -16 124 -7 192 63 75 77 81 87 100
159 l17 70 -45 56 c-45 55 -46 56 -96 55 -28 -1 -63 -4 -77 -6z"/>
<path d="M3070 2423 c-8 -3 -50 -21 -93 -41 -66 -30 -84 -44 -121 -94 l-44
-59 18 -64 c10 -36 21 -68 24 -73 3 -5 36 -19 74 -32 l69 -24 92 44 c81 38 97
51 135 102 l44 59 -17 67 -17 67 -65 27 c-67 28 -75 30 -99 21z"/>
<path d="M4359 2213 c-60 -65 -59 -62 -44 -131 16 -76 35 -99 129 -151 61 -33
82 -39 145 -42 l73 -4 44 55 44 56 -16 64 c-19 76 -36 96 -124 146 -55 31 -77
37 -140 41 l-75 5 -36 -39z"/>
<path d="M6105 2043 c-94 -22 -174 -60 -217 -102 -48 -45 -48 -45 -48 -113 l0
-67 59 -41 c72 -48 94 -49 201 -13 67 22 88 35 134 82 l55 56 -12 65 c-12 64
-12 65 -72 102 -62 38 -66 39 -100 31z"/>
<path d="M5148 1948 l-67 -21 -21 -60 c-11 -34 -20 -67 -20 -74 0 -22 71 -113
99 -127 37 -19 156 -39 194 -33 18 3 57 16 88 30 l57 25 12 70 13 70 -47 55
c-45 52 -50 56 -114 66 -116 20 -126 20 -194 -1z"/>
</g>
</svg>
