<?xml version="1.0" standalone="no"?>
<!DOCTYPE svg PUBLIC "-//W3C//DTD SVG 20010904//EN"
 "http://www.w3.org/TR/2001/REC-SVG-20010904/DTD/svg10.dtd">
<svg version="1.0" xmlns="http://www.w3.org/2000/svg"
 width="920.000000pt" height="832.000000pt" viewBox="0 0 920.000000 832.000000"
 preserveAspectRatio="xMidYMid meet">

<g transform="translate(0.000000,832.000000) scale(0.100000,-0.100000)"
fill="#000000" stroke="none">
<path d="M2896 7879 c-38 -33 -53 -79 -41 -126 3 -15 47 -68 96 -118 49 -50
89 -95 89 -99 0 -4 -39 -46 -86 -93 -109 -109 -126 -152 -85 -219 39 -64 41
-64 535 -64 l446 0 0 -125 0 -125 -707 0 c-690 0 -709 -1 -741 -20 -37 -23
-52 -54 -52 -108 0 -31 14 -56 83 -149 407 -541 522 -1208 317 -1834 -69 -212
-174 -410 -321 -607 -86 -114 -96 -149 -64 -212 32 -62 5 -60 780 -60 l705 0
-2 -437 -3 -438 -469 -3 -470 -2 -180 179 c-100 98 -191 184 -203 190 -14 7
-94 11 -222 11 l-201 0 0 1696 c0 1549 -1 1699 -16 1730 -20 42 -59 64 -114
64 -32 0 -48 -7 -78 -34 l-37 -34 -5 -389 -5 -388 -354 -565 c-1004 -1600
-895 -1419 -888 -1471 4 -29 15 -52 36 -73 l31 -31 590 -3 590 -2 0 -250 0
-249 -532 -3 -533 -3 -49 -25 c-58 -30 -100 -78 -121 -139 -23 -69 -22 -837 1
-887 24 -50 58 -64 157 -64 56 0 88 -4 94 -12 6 -7 62 -274 126 -593 l117
-580 35 -32 35 -33 2152 0 c1787 0 2171 3 2258 14 687 92 1327 578 1850 1406
109 173 237 407 318 585 l74 160 365 234 c255 164 371 244 384 265 24 39 24
83 0 121 -10 17 -324 294 -697 615 -373 321 -778 670 -900 775 -735 634 -1920
1652 -1938 1665 -18 13 -94 16 -481 20 l-460 5 -5 463 -5 464 -37 34 -38 34
-545 0 -544 0 -35 -31z m954 -344 l0 -125 -280 0 c-154 0 -280 4 -280 8 0 5 9
17 20 27 26 23 44 80 36 116 -3 17 -18 45 -32 64 l-26 35 281 0 281 0 0 -125z
m-849 -997 c476 -711 463 -1595 -35 -2295 l-51 -73 -92 0 c-51 0 -93 3 -93 6
0 3 23 44 51 90 284 471 383 1044 273 1593 -46 231 -152 504 -274 707 -27 46
-50 85 -50 89 0 3 43 5 94 5 l95 0 82 -122z m473 39 c32 -45 78 -116 102 -157
60 -104 84 -125 143 -125 58 0 98 24 118 72 21 51 11 85 -56 196 l-59 97 95 0
c79 0 98 -3 110 -17 7 -10 44 -63 81 -118 203 -300 320 -656 338 -1035 21
-422 -125 -898 -383 -1247 l-53 -73 -94 0 -94 0 56 93 c289 478 387 1043 277
1592 -21 106 -28 123 -54 147 -57 51 -131 49 -175 -3 -38 -45 -40 -67 -17
-186 110 -562 -8 -1099 -343 -1570 l-51 -73 -98 0 -98 0 34 53 c234 366 362
843 343 1278 -16 378 -130 758 -322 1075 -24 40 -44 75 -44 78 0 3 42 6 93 6
l92 0 59 -83z m1000 0 c32 -45 78 -116 102 -157 60 -104 84 -125 143 -125 58
0 98 24 118 72 21 51 11 85 -56 196 l-59 97 95 0 c79 0 98 -3 109 -17 300
-389 454 -896 416 -1370 -31 -377 -164 -739 -379 -1030 l-53 -73 -94 0 -94 0
56 93 c288 477 388 1048 277 1592 -24 120 -37 145 -87 171 -59 31 -135 3 -165
-61 -16 -34 -16 -41 5 -148 110 -567 -6 -1102 -342 -1574 l-51 -73 -98 0 -98
0 34 53 c123 193 232 453 287 688 132 561 34 1170 -266 1666 -24 39 -44 74
-44 77 0 3 42 6 93 6 l92 0 59 -83z m1191 -547 l197 -169 573 -953 c418 -696
580 -958 601 -970 27 -16 72 -18 554 -18 l525 0 70 -61 c39 -33 71 -63 72 -67
1 -4 -125 -89 -282 -190 l-284 -182 -1180 0 c-762 0 -1189 -4 -1206 -10 -14
-5 -108 -91 -208 -190 l-182 -180 -405 3 -405 2 -3 438 -2 437 450 0 c372 0
456 3 479 14 31 17 122 130 204 256 170 262 280 546 338 877 33 183 33 509 1
698 -23 131 -57 268 -93 372 -21 61 -21 63 -15 63 3 0 93 -76 201 -170z
m-3815 -1150 l0 -710 -446 0 c-353 0 -445 3 -441 13 3 9 541 871 854 1370 13
20 25 37 28 37 3 0 5 -319 5 -710z m5309 -135 l661 -570 -322 -3 c-249 -2
-325 1 -334 10 -6 7 -157 256 -334 553 -178 297 -330 551 -339 564 -8 13 -11
22 -5 20 6 -2 309 -260 673 -574z m-4560 -1749 c130 -127 187 -177 216 -187
33 -12 220 -14 1105 -14 l1065 0 45 24 c26 13 117 94 210 187 l166 164 1062 0
c584 0 1062 -2 1062 -5 0 -26 -154 -317 -264 -497 l-71 -118 -240 0 c-212 0
-245 -3 -281 -19 -65 -30 -90 -99 -59 -165 28 -59 54 -66 234 -66 89 0 161 -3
161 -7 0 -15 -166 -209 -280 -327 -342 -352 -677 -552 -1070 -638 l-105 -23
-2115 0 -2114 0 -98 485 c-53 267 -95 491 -93 498 4 9 450 12 2190 12 1894 0
2190 2 2214 15 30 15 61 69 61 105 0 32 -30 89 -54 103 -16 9 -549 13 -2356
17 l-2335 5 -3 313 -2 312 787 0 787 0 175 -174z"/>
<path d="M5924 2531 c-82 -37 -97 -136 -29 -198 l35 -33 166 0 c185 0 211 7
239 66 31 67 8 135 -57 164 -61 28 -293 29 -354 1z"/>
<path d="M2443 2043 c-13 -2 -36 -18 -52 -34 -55 -54 -52 -128 5 -179 95 -83
234 13 194 134 -18 56 -85 91 -147 79z"/>
<path d="M2924 2031 c-82 -37 -97 -136 -29 -198 99 -93 253 25 191 146 -31 59
-99 81 -162 52z"/>
<path d="M3422 2030 c-81 -37 -95 -135 -27 -197 28 -27 43 -33 80 -33 37 0 52
6 80 33 107 98 -1 258 -133 197z"/>
<path d="M3935 2035 c-92 -33 -113 -140 -39 -205 60 -53 155 -35 189 36 49
103 -42 206 -150 169z"/>
<path d="M4443 2043 c-13 -2 -36 -18 -52 -34 -55 -54 -52 -128 5 -179 95 -83
234 13 194 134 -18 56 -85 91 -147 79z"/>
<path d="M4924 2031 c-82 -37 -97 -136 -29 -198 99 -93 253 25 191 146 -31 59
-99 81 -162 52z"/>
<path d="M5422 2030 c-81 -37 -95 -135 -27 -197 28 -27 43 -33 80 -33 37 0 52
6 80 33 107 98 -1 258 -133 197z"/>
</g>
</svg>
